<?xml version="1.0" standalone="no"?>
<!DOCTYPE svg PUBLIC "-//W3C//DTD SVG 20010904//EN"
 "http://www.w3.org/TR/2001/REC-SVG-20010904/DTD/svg10.dtd">
<svg version="1.0" xmlns="http://www.w3.org/2000/svg"
 width="225.000000pt" height="225.000000pt" viewBox="0 0 225.000000 225.000000"
 preserveAspectRatio="xMidYMid meet">
<metadata>
Created by potrace 1.10, written by Peter Selinger 2001-2011
</metadata>
<g transform="translate(0.000000,225.000000) scale(0.100000,-0.100000)"
fill="#000000" stroke="none">
<path d="M945 1849 c-176 -17 -396 -76 -508 -137 l-48 -26 3 -395 c3 -389 3
-397 27 -454 44 -110 101 -157 421 -343 273 -159 286 -165 310 -152 14 8 142
83 285 167 390 227 416 261 423 544 4 152 3 158 -15 148 -10 -6 -175 -102
-368 -214 l-350 -203 -148 87 c-82 47 -157 93 -168 102 -18 16 -19 32 -19 232
l0 214 38 10 c186 48 417 48 593 1 l39 -11 0 -68 0 -69 -166 -96 c-91 -53
-167 -96 -169 -96 -2 0 -45 25 -96 55 -50 30 -93 55 -95 55 -2 0 -4 -35 -4
-77 l0 -78 94 -54 c52 -30 97 -54 99 -55 3 -1 111 60 241 134 l235 135 1 146
c0 105 -4 149 -12 157 -20 16 -123 48 -218 69 -126 26 -382 24 -510 -5 -52
-12 -121 -32 -153 -43 l-58 -22 3 -266 c4 -357 -12 -329 278 -497 102 -59 190
-107 195 -107 8 0 226 124 563 320 l43 25 -7 -39 c-9 -53 -38 -106 -77 -145
-25 -24 -478 -297 -518 -311 -3 -1 -116 62 -251 141 -253 146 -302 184 -336
261 -15 31 -17 86 -20 377 l-3 341 63 26 c305 121 763 123 1071 5 l78 -30 -3
-164 c-2 -90 -1 -163 2 -162 3 2 33 19 67 38 l63 35 0 167 0 167 -72 35 c-227
108 -544 155 -843 125z m432 -40 c143 -19 353 -83 421 -127 21 -14 22 -20 22
-163 0 -136 -2 -149 -19 -159 -39 -20 -41 -14 -41 114 0 150 -6 161 -111 200
-296 110 -706 112 -1025 6 -143 -47 -134 -21 -134 -404 0 -360 4 -389 64 -468
35 -46 59 -62 226 -160 52 -30 142 -83 199 -117 122 -72 146 -79 192 -56 137
70 483 282 509 312 37 42 70 113 70 151 0 25 -25 62 -42 62 -5 0 -53 -25 -106
-56 -344 -199 -461 -264 -478 -264 -10 0 -66 28 -124 62 -58 33 -140 81 -183
106 -59 34 -84 55 -102 87 l-25 42 2 254 3 254 36 17 c20 9 83 26 139 37 129
26 376 29 490 6 87 -18 170 -43 188 -58 8 -7 12 -47 12 -138 l0 -128 -67 -39
c-38 -22 -85 -49 -106 -61 -21 -12 -71 -40 -110 -63 -40 -22 -90 -51 -112 -64
l-40 -23 -78 45 c-73 42 -77 47 -77 79 0 19 5 35 11 35 6 0 40 -16 76 -36 l64
-36 42 18 c23 10 65 32 92 50 28 17 87 53 133 79 94 54 114 81 110 152 -5 104
-99 138 -378 138 -198 -1 -308 -22 -346 -68 l-25 -30 3 -205 3 -204 47 -42
c25 -24 77 -59 115 -80 37 -20 95 -52 128 -71 33 -19 69 -35 81 -35 11 0 82
36 157 80 75 44 139 80 141 80 4 0 228 130 329 191 27 16 53 29 58 29 17 0 10
-230 -9 -282 -27 -75 -75 -133 -149 -181 -82 -53 -490 -291 -517 -300 -13 -5
-82 30 -245 124 -313 182 -323 188 -350 213 -33 30 -88 118 -101 163 -7 26
-10 160 -8 417 l3 380 46 22 c63 32 222 82 299 95 36 6 83 15 105 19 61 12
403 11 492 -1z"/>
</g>
</svg>
